<svg width="44" height="35" viewBox="0 0 44 35" fill="none" xmlns="http://www.w3.org/2000/svg">
<path d="M5.91638 34.5139L29.6814 0.486111H38.0836L14.3186 34.5139H5.91638ZM9.24746 18.9583C7.49077 18.9583 5.91638 18.6019 4.52429 17.8889C3.1322 17.1435 2.02185 16.0579 1.19322 14.6319C0.39774 13.206 0 11.4884 0 9.47917C0 7.46991 0.39774 5.76852 1.19322 4.375C2.02185 2.94907 3.1322 1.86343 4.52429 1.11806C5.91638 0.372685 7.49077 0 9.24746 0C11.0041 0 12.5785 0.372685 13.9706 1.11806C15.3627 1.86343 16.4565 2.94907 17.252 4.375C18.0806 5.76852 18.4949 7.46991 18.4949 9.47917C18.4949 11.4884 18.0806 13.206 17.252 14.6319C16.4565 16.0579 15.3627 17.1435 13.9706 17.8889C12.5785 18.6019 11.0041 18.9583 9.24746 18.9583ZM9.24746 13.7083C9.81092 13.7083 10.3081 13.4167 10.739 12.8333C11.203 12.2176 11.435 11.0995 11.435 9.47917C11.435 7.8588 11.203 6.75695 10.739 6.17361C10.3081 5.55787 9.81092 5.25 9.24746 5.25C8.71714 5.25 8.21996 5.55787 7.75593 6.17361C7.2919 6.75695 7.05989 7.8588 7.05989 9.47917C7.05989 11.0995 7.2919 12.2176 7.75593 12.8333C8.21996 13.4167 8.71714 13.7083 9.24746 13.7083ZM34.7525 35C32.9959 35 31.4215 34.6435 30.0294 33.9306C28.6373 33.1852 27.5269 32.0995 26.6983 30.6736C25.9028 29.2477 25.5051 27.5301 25.5051 25.5208C25.5051 23.5116 25.9028 21.8102 26.6983 20.4167C27.5269 18.9907 28.6373 17.9051 30.0294 17.1597C31.4215 16.4144 32.9959 16.0417 34.7525 16.0417C36.5092 16.0417 38.0836 16.4144 39.4757 17.1597C40.8678 17.9051 41.9616 18.9907 42.7571 20.4167C43.5857 21.8102 44 23.5116 44 25.5208C44 27.5301 43.5857 29.2477 42.7571 30.6736C41.9616 32.0995 40.8678 33.1852 39.4757 33.9306C38.0836 34.6435 36.5092 35 34.7525 35ZM34.7525 29.75C35.316 29.75 35.8132 29.4583 36.2441 28.875C36.7081 28.2593 36.9401 27.1412 36.9401 25.5208C36.9401 23.9005 36.7081 22.7986 36.2441 22.2153C35.8132 21.5995 35.316 21.2917 34.7525 21.2917C34.2222 21.2917 33.725 21.5995 33.261 22.2153C32.797 22.7986 32.565 23.9005 32.565 25.5208C32.565 27.1412 32.797 28.2593 33.261 28.875C33.725 29.4583 34.2222 29.75 34.7525 29.75Z" fill="black"/>
<path d="M5.91638 34.5139L29.6814 0.486111H38.0836L14.3186 34.5139H5.91638ZM9.24746 18.9583C7.49077 18.9583 5.91638 18.6019 4.52429 17.8889C3.1322 17.1435 2.02185 16.0579 1.19322 14.6319C0.39774 13.206 0 11.4884 0 9.47917C0 7.46991 0.39774 5.76852 1.19322 4.375C2.02185 2.94907 3.1322 1.86343 4.52429 1.11806C5.91638 0.372685 7.49077 0 9.24746 0C11.0041 0 12.5785 0.372685 13.9706 1.11806C15.3627 1.86343 16.4565 2.94907 17.252 4.375C18.0806 5.76852 18.4949 7.46991 18.4949 9.47917C18.4949 11.4884 18.0806 13.206 17.252 14.6319C16.4565 16.0579 15.3627 17.1435 13.9706 17.8889C12.5785 18.6019 11.0041 18.9583 9.24746 18.9583ZM9.24746 13.7083C9.81092 13.7083 10.3081 13.4167 10.739 12.8333C11.203 12.2176 11.435 11.0995 11.435 9.47917C11.435 7.8588 11.203 6.75695 10.739 6.17361C10.3081 5.55787 9.81092 5.25 9.24746 5.25C8.71714 5.25 8.21996 5.55787 7.75593 6.17361C7.2919 6.75695 7.05989 7.8588 7.05989 9.47917C7.05989 11.0995 7.2919 12.2176 7.75593 12.8333C8.21996 13.4167 8.71714 13.7083 9.24746 13.7083ZM34.7525 35C32.9959 35 31.4215 34.6435 30.0294 33.9306C28.6373 33.1852 27.5269 32.0995 26.6983 30.6736C25.9028 29.2477 25.5051 27.5301 25.5051 25.5208C25.5051 23.5116 25.9028 21.8102 26.6983 20.4167C27.5269 18.9907 28.6373 17.9051 30.0294 17.1597C31.4215 16.4144 32.9959 16.0417 34.7525 16.0417C36.5092 16.0417 38.0836 16.4144 39.4757 17.1597C40.8678 17.9051 41.9616 18.9907 42.7571 20.4167C43.5857 21.8102 44 23.5116 44 25.5208C44 27.5301 43.5857 29.2477 42.7571 30.6736C41.9616 32.0995 40.8678 33.1852 39.4757 33.9306C38.0836 34.6435 36.5092 35 34.7525 35ZM34.7525 29.75C35.316 29.75 35.8132 29.4583 36.2441 28.875C36.7081 28.2593 36.9401 27.1412 36.9401 25.5208C36.9401 23.9005 36.7081 22.7986 36.2441 22.2153C35.8132 21.5995 35.316 21.2917 34.7525 21.2917C34.2222 21.2917 33.725 21.5995 33.261 22.2153C32.797 22.7986 32.565 23.9005 32.565 25.5208C32.565 27.1412 32.797 28.2593 33.261 28.875C33.725 29.4583 34.2222 29.75 34.7525 29.75Z" fill="url(#paint0_linear_3_1166)"/>
<defs>
<linearGradient id="paint0_linear_3_1166" x1="1.36594e-08" y1="17.5" x2="44" y2="17.5" gradientUnits="userSpaceOnUse">
<stop offset="0.377589" stop-color="#45DA2D"/>
<stop offset="1" stop-color="#2BCCFF"/>
</linearGradient>
</defs>
</svg>
