<svg width="44" height="37" viewBox="0 0 44 37" fill="none" xmlns="http://www.w3.org/2000/svg">
<path d="M22.0001 9.53711L6.86597 21.1824V36.7843H19.0267V25.3507H25.4871V36.7843H37.1343V21.1824L22.0001 9.53711Z" fill="black"/>
<path d="M22.0001 9.53711L6.86597 21.1824V36.7843H19.0267V25.3507H25.4871V36.7843H37.1343V21.1824L22.0001 9.53711Z" fill="url(#paint0_linear_3_1080)"/>
<path d="M37.768 12.1301V4.15293H31.3943V7.22691L22 0L0 16.9243L3.03695 20.8719L22 6.28031L40.9631 20.872L44 16.9244L37.768 12.1301Z" fill="black"/>
<path d="M37.768 12.1301V4.15293H31.3943V7.22691L22 0L0 16.9243L3.03695 20.8719L22 6.28031L40.9631 20.872L44 16.9244L37.768 12.1301Z" fill="url(#paint1_linear_3_1080)"/>
<defs>
<linearGradient id="paint0_linear_3_1080" x1="6.86597" y1="23.1607" x2="37.1343" y2="23.1607" gradientUnits="userSpaceOnUse">
<stop offset="0.377589" stop-color="#45DA2D"/>
<stop offset="1" stop-color="#2BCCFF"/>
</linearGradient>
<linearGradient id="paint1_linear_3_1080" x1="1.36594e-08" y1="10.436" x2="44" y2="10.436" gradientUnits="userSpaceOnUse">
<stop offset="0.377589" stop-color="#45DA2D"/>
<stop offset="1" stop-color="#2BCCFF"/>
</linearGradient>
</defs>
</svg>
