<svg width="44" height="44" viewBox="0 0 44 44" fill="none" xmlns="http://www.w3.org/2000/svg">
<path d="M19.485 22.692L23.5823 18.5947C22.6609 18.0065 21.5683 17.6641 20.3964 17.6641C17.1214 17.6641 14.457 20.3285 14.457 23.6035C14.457 26.8785 17.1214 29.5429 20.3964 29.5429C23.6714 29.5429 26.3358 26.8785 26.3358 23.6035C26.3358 22.4317 25.9934 21.339 25.4052 20.4176L21.3079 24.5149L19.485 22.692Z" fill="url(#paint0_linear_3_1116)"/>
<path d="M40.793 23.6035C40.793 20.1005 39.8981 16.6749 38.1991 13.6433L33.1204 14.3392C35.0197 16.9406 36.1426 20.1432 36.1426 23.6035C36.1426 32.286 29.0789 39.3497 20.3964 39.3497C11.7139 39.3497 4.65034 32.286 4.65034 23.6035C4.65034 14.9211 11.7141 7.85745 20.3965 7.85745C23.8569 7.85745 27.0594 8.98031 29.6608 10.8796L30.3567 5.80088C27.3251 4.1019 23.8995 3.20703 20.3965 3.20703C14.9484 3.20703 9.82635 5.32866 5.97403 9.18106C2.12162 13.0334 0 18.1554 0 23.6035C0 29.0516 2.12162 34.1737 5.97403 38.026C9.82635 41.8785 14.9483 44 20.3965 44C25.8447 44 30.9666 41.8784 34.819 38.026C38.6714 34.1737 40.793 29.0517 40.793 23.6035Z" fill="url(#paint1_linear_3_1116)"/>
<path d="M20.3965 10.4355C13.1357 10.4355 7.22852 16.3426 7.22852 23.6036C7.22852 30.8645 13.1356 36.7716 20.3965 36.7716C27.6575 36.7716 33.5646 30.8645 33.5646 23.6036C33.5646 20.4364 32.4403 17.5269 30.5703 15.2528L27.2589 18.5642C28.2988 19.9763 28.9142 21.7193 28.9142 23.6036C28.9142 28.3001 25.0932 32.1211 20.3966 32.1211C15.7001 32.1211 11.8791 28.3001 11.8791 23.6036C11.8791 18.907 15.7001 15.0861 20.3966 15.0861C22.2809 15.0861 24.0238 15.7015 25.436 16.7413L28.7474 13.4299C26.4732 11.5597 23.5638 10.4355 20.3965 10.4355Z" fill="url(#paint2_linear_3_1116)"/>
<path d="M38.6983 0L32.9688 5.72954L32.1268 11.8732L38.2705 11.0313L44 5.30174L40.1327 3.86736L38.6983 0Z" fill="url(#paint3_linear_3_1116)"/>
<defs>
<linearGradient id="paint0_linear_3_1116" x1="14.457" y1="23.6035" x2="26.3358" y2="23.6035" gradientUnits="userSpaceOnUse">
<stop offset="0.377589" stop-color="#45DA2D"/>
<stop offset="1" stop-color="#2BCCFF"/>
</linearGradient>
<linearGradient id="paint1_linear_3_1116" x1="1.26638e-08" y1="23.6035" x2="40.793" y2="23.6035" gradientUnits="userSpaceOnUse">
<stop offset="0.377589" stop-color="#45DA2D"/>
<stop offset="1" stop-color="#2BCCFF"/>
</linearGradient>
<linearGradient id="paint2_linear_3_1116" x1="7.22852" y1="23.6036" x2="33.5646" y2="23.6036" gradientUnits="userSpaceOnUse">
<stop offset="0.377589" stop-color="#45DA2D"/>
<stop offset="1" stop-color="#2BCCFF"/>
</linearGradient>
<linearGradient id="paint3_linear_3_1116" x1="32.1268" y1="5.93661" x2="44" y2="5.93661" gradientUnits="userSpaceOnUse">
<stop offset="0.377589" stop-color="#45DA2D"/>
<stop offset="1" stop-color="#2BCCFF"/>
</linearGradient>
</defs>
</svg>
