<svg width="86" height="86" viewBox="0 0 86 86" fill="none" xmlns="http://www.w3.org/2000/svg">
<path d="M47.3524 0C48.8505 0.560217 49.3477 1.67436 49.3477 3.22282C49.3226 17.5325 49.3226 31.8401 49.3477 46.1455C49.3477 48.4493 48.4413 49.3621 46.1502 49.3621H3.14718C0.906387 49.3621 0 48.4179 0 46.2148C0.12734 36.3456 3.37193 26.7694 9.26982 18.8555C15.1677 10.9417 23.4168 5.0954 32.8376 2.15274C36.252 1.06634 39.7862 0.400492 43.3618 0.169953C43.643 0.190089 43.9246 0.13809 44.1801 0.0188837L47.3524 0Z" fill="url(#paint0_linear_1_386)"/>
<path d="M86 50.2432C85.6853 52.1316 85.4461 54.02 85.0118 55.8391C83.153 63.7542 78.8796 70.8957 72.7833 76.275C66.687 81.6543 59.0692 85.0053 50.9845 85.8642C49.348 86.0405 49.348 85.9964 49.348 84.3472C49.348 78.8898 49.348 73.4324 49.348 67.9813C49.348 67.3519 49.5305 67.119 50.1914 66.9805C58.972 65.1865 64.4859 59.9306 66.7833 51.2441C66.7833 51.1622 66.8337 51.0867 66.8526 51.0049C67.1799 49.3431 67.1799 49.3431 68.8982 49.3431H84.974C85.3076 49.3431 85.6475 49.3431 85.9811 49.3809L86 50.2432Z" fill="url(#paint1_linear_1_386)"/>
<path d="M85.9998 44.3578C85.4144 44.3578 84.8291 44.3201 84.2374 44.3201C78.8117 44.3201 73.3796 44.3201 67.9476 44.3201C67.3182 44.3201 67.0412 44.1438 66.9279 43.4766C66.109 38.3051 63.3012 33.6586 59.104 30.5286C58.3421 29.9616 57.5499 29.4362 56.7311 28.955C56.2654 28.6921 55.8828 28.3037 55.6269 27.8341C55.371 27.3645 55.252 26.8326 55.2834 26.2987C55.2834 21.54 55.2834 16.7813 55.2834 12.0226C55.2834 9.88244 56.9136 8.77459 58.9404 9.4607C68.143 12.4504 75.914 18.7396 80.7566 27.117C83.5924 31.8996 85.3276 37.2536 85.8362 42.7905C85.8735 43.0369 85.9261 43.2807 85.9935 43.5206L85.9998 44.3578Z" fill="url(#paint2_linear_1_386)"/>
<path d="M44.2873 76.6239C44.2873 79.532 44.2873 82.4401 44.2873 85.3545C44.2873 85.9084 44.1488 86.0532 43.576 85.9839C37.2197 85.4575 31.087 83.3922 25.7071 79.9663C20.3272 76.5404 15.8617 71.8568 12.6959 66.3197C11.3707 64.0157 10.2805 61.5842 9.44175 59.0621C8.7242 56.9282 9.80053 55.3294 12.0413 55.3231C16.7747 55.3231 21.4829 55.3231 26.2351 55.3231C26.8237 55.3045 27.4051 55.4569 27.909 55.7619C28.4128 56.0668 28.8174 56.5113 29.0738 57.0415C30.9317 60.2915 33.6584 62.9595 36.9481 64.7461C38.8726 65.8389 40.9798 66.5726 43.1669 66.9114C43.9852 67.0247 44.3188 67.2954 44.2936 68.2207C44.2369 71.0029 44.2873 73.8039 44.2873 76.6239Z" fill="url(#paint3_linear_1_386)"/>
<defs>
<linearGradient id="paint0_linear_1_386" x1="2.66979e-08" y1="43" x2="86" y2="43" gradientUnits="userSpaceOnUse">
<stop offset="0.377589" stop-color="#45DA2D"/>
<stop offset="1" stop-color="#2BCCFF"/>
</linearGradient>
<linearGradient id="paint1_linear_1_386" x1="2.66979e-08" y1="43" x2="86" y2="43" gradientUnits="userSpaceOnUse">
<stop offset="0.377589" stop-color="#45DA2D"/>
<stop offset="1" stop-color="#2BCCFF"/>
</linearGradient>
<linearGradient id="paint2_linear_1_386" x1="2.66979e-08" y1="43" x2="86" y2="43" gradientUnits="userSpaceOnUse">
<stop offset="0.377589" stop-color="#45DA2D"/>
<stop offset="1" stop-color="#2BCCFF"/>
</linearGradient>
<linearGradient id="paint3_linear_1_386" x1="2.66979e-08" y1="43" x2="86" y2="43" gradientUnits="userSpaceOnUse">
<stop offset="0.377589" stop-color="#45DA2D"/>
<stop offset="1" stop-color="#2BCCFF"/>
</linearGradient>
</defs>
</svg>
